# xmcd CD database file
# Copyright (C) 1993-1998 Ti Kan
# 
# Track frame offsets:
#     150
#     12490
#     30992
#     52522
#     63450
#     82260
#     92552
#     119565
#     134710
#     154925
#     176355
#     200747
# 
# Disc length: 3098 seconds
# 
# Revision: 1
# Processed by: cddbd v1.4b41PL1 Copyright (c) Steve Scherf et al.
# Submitted via: DiscPlay 4.0.4
# 
DISCID=a10c180c
DTITLE=Frankie Nola - Tex-Orelans "Nola Style"
DYEAR=1900
DGENRE=
TTITLE0=Scuttle Whamin'
TTITLE1=Anxiety
TTITLE2=Red House
TTITLE3=Street Musician
TTITLE4=Bourbon Street
TTITLE5=Mombo
TTITLE6=You're Just Not Here
TTITLE7=Joe Blues
TTITLE8=Gangster Ray
TTITLE9=You Should Have Lied
TTITLE10=You Had Him
TTITLE11=Count The Hours
EXTD=
EXTT0=
EXTT1=
EXTT2=
EXTT3=
EXTT4=
EXTT5=
EXTT6=
EXTT7=
EXTT8=
EXTT9=
EXTT10=
EXTT11=
PLAYORDER=
